<svg xmlns="http://www.w3.org/2000/svg" width="1024" height="1024" viewBox="0 0 1024 1024">
  <metadata><?xpacket begin="﻿" id="W5M0MpCehiHzreSzNTczkc9d"?>
<x:xmpmeta xmlns:x="adobe:ns:meta/" x:xmptk="Adobe XMP Core 5.6-c138 79.159824, 2016/09/14-01:09:01        ">
   <rdf:RDF xmlns:rdf="http://www.w3.org/1999/02/22-rdf-syntax-ns#">
      <rdf:Description rdf:about=""
            xmlns:xmp="http://ns.adobe.com/xap/1.0/">
         <xmp:CreatorTool>Adobe Photoshop CS6 (Windows)</xmp:CreatorTool>
      </rdf:Description>
   </rdf:RDF>
</x:xmpmeta>
                                                                                                    
                                                                                                    
                                                                                                    
                                                                                                    
                                                                                                    
                                                                                                    
                                                                                                    
                                                                                                    
                                                                                                    
                                                                                                    
                                                                                                    
                                                                                                    
                                                                                                    
                                                                                                    
                                                                                                    
                                                                                                    
                                                                                                    
                                                                                                    
                                                                                                    
                                                                                                    
                           
<?xpacket end="w"?></metadata>
<defs>
    <style>
      .cls-1, .cls-2 {
        fill: none;
        stroke: #71cbcf;
      }

      .cls-1 {
        stroke-width: 32px;
      }

      .cls-2 {
        stroke-width: 16px;
        fill-rule: evenodd;
      }

      .cls-3 {
        fill: #71cbcf;
      }
    </style>
  </defs>
  <circle class="cls-1" cx="512" cy="512" r="456"/>
  <path class="cls-2" d="M808,232s-146.286,36.273-241.906,55.15C482.346,303.683,512,392,512,392s28.373,75.556,115.49,66.443C693.222,451.567,688.126,515.526,664,552c0,0-20.4,40.671-120,120-68.326,54.422-152.684,111.581-232,184,102.554-28.448,523.715-201.9,512-360-8.5-68.818-144-104-144-104s-33.248-.575-13-52C687.134,288.865,808,232,808,232Z"/>
  <path class="cls-2" d="M360,323.5l112-22.987L484,408s9.3,139.465-46.362,214.028C349.867,739.616,262.261,836.575,262.261,836.575S334.485,655.383,370,537c16.745-55.815,6-113,6-113Z"/>
  <circle class="cls-3" cx="384" cy="224" r="64"/>
  <circle id="Ellipse_2_copy" data-name="Ellipse 2 copy" class="cls-3" cx="600" cy="192" r="64"/>
</svg>
